<?xml version="1.0" encoding="UTF-8" standalone="no"?>
<!-- Created with Inkscape (http://www.inkscape.org/) -->

<svg
   width="300"
   height="300"
   viewBox="0 0 300 300"
   version="1.1"
   id="svg1"
   sodipodi:docname="logo.svg"
   inkscape:version="1.3.2 (091e20e, 2023-11-25, custom)"
   xml:space="preserve"
   xmlns:inkscape="http://www.inkscape.org/namespaces/inkscape"
   xmlns:sodipodi="http://sodipodi.sourceforge.net/DTD/sodipodi-0.dtd"
   xmlns:xlink="http://www.w3.org/1999/xlink"
   xmlns="http://www.w3.org/2000/svg"
   xmlns:svg="http://www.w3.org/2000/svg"><sodipodi:namedview
     id="namedview1"
     pagecolor="#ffffff"
     bordercolor="#cccccc"
     borderopacity="1"
     inkscape:showpageshadow="0"
     inkscape:pageopacity="1"
     inkscape:pagecheckerboard="0"
     inkscape:deskcolor="#d1d1d1"
     inkscape:document-units="px"
     inkscape:zoom="1.3333333"
     inkscape:cx="19.5"
     inkscape:cy="111.75"
     inkscape:window-width="1920"
     inkscape:window-height="1009"
     inkscape:window-x="-8"
     inkscape:window-y="-8"
     inkscape:window-maximized="1"
     inkscape:current-layer="layer1" /><defs
     id="defs1"><linearGradient
       id="linearGradient1"
       inkscape:collect="always"><stop
         style="stop-color:#6441a5;stop-opacity:1;"
         offset="0"
         id="stop2" /><stop
         style="stop-color:#2a0845;stop-opacity:1;"
         offset="1"
         id="stop1" /></linearGradient><linearGradient
       inkscape:collect="always"
       xlink:href="#linearGradient1"
       id="linearGradient2"
       x1="0.375"
       y1="150"
       x2="300.375"
       y2="150"
       gradientUnits="userSpaceOnUse"
       spreadMethod="pad" /></defs><g
     inkscape:label="Layer 1"
     inkscape:groupmode="layer"
     id="layer1"><rect
       style="fill:url(#linearGradient2);stroke-width:0.994;stroke-dasharray:none;paint-order:markers fill stroke"
       id="rect1"
       width="300"
       height="299.25"
       x="0.375"
       y="0.375"
       ry="40.5" /><path
       d="m 122.20536,108.20536 v 16.90178 h 56.33928 v -16.90178 c 0,-15.56373 -12.60591,-28.16965 -28.16964,-28.16965 -15.56373,0 -28.16964,12.60592 -28.16964,28.16965 z M 99.66964,125.10714 V 108.20536 C 99.66964,80.21177 122.38142,57.5 150.375,57.5 c 27.99358,0 50.70536,22.71177 50.70536,50.70536 v 16.90178 h 5.63393 c 12.42985,0 22.53571,10.10586 22.53571,22.53572 V 215.25 c 0,12.42985 -10.10586,22.53571 -22.53571,22.53571 H 94.03571 C 81.60586,237.78571 71.5,227.67985 71.5,215.25 v -67.60714 c 0,-12.42986 10.10586,-22.53572 22.53571,-22.53572 z"
       id="path1"
       style="fill:#fffff4;fill-opacity:1;stroke-width:0.352121" /></g></svg>
